{"accessors" : [{"bufferView" : 0, "byteOffset" : 0, "componentType" : 5123, "count" : 618, "type" : "SCALAR", "max" : [511], "min" : [0]}, {"bufferView" : 1, "byteOffset" : 0, "componentType" : 5126, "count" : 512, "type" : "VEC3", "max" : [0.05202915519475937, 1.7453500032424927, 0.10682300478219986], "min" : [0.01213878020644188, 1.7055206298828125, 0.0869980975985527], "name" : "POSITION"}, {"bufferView" : 1, "byteOffset" : 12, "componentType" : 5126, "count" : 512, "type" : "VEC3", "max" : [0.9405931234359741, 0.9512237906455994, 1.0000042915344238], "min" : [-0.9471347332000732, -0.9485123753547668, -1.0000044107437134], "name" : "NORMAL"}, {"bufferView" : 1, "byteOffset" : 24, "componentType" : 5126, "count" : 512, "type" : "VEC2", "max" : [0.9646214246749878, 0.9818061590194702], "min" : [0.019903719425201416, 0.020990610122680664], "name" : "TEXCOORD_0"}, {"bufferView" : 0, "byteOffset" : 1236, "componentType" : 5123, "count" : 618, "type" : "SCALAR", "max" : [514], "min" : [0]}, {"bufferView" : 2, "byteOffset" : 0, "componentType" : 5126, "count" : 515, "type" : "VEC3", "max" : [-0.012419921346008778, 1.7453908920288086, 0.10682306438684464], "min" : [-0.05215172842144966, 1.705479621887207, 0.08699815720319748], "name" : "POSITION"}, {"bufferView" : 2, "byteOffset" : 12, "componentType" : 5126, "count" : 515, "type" : "VEC3", "max" : [0.9310587048530579, 0.9478596448898315, 1.0000042915344238], "min" : [-0.9491675496101379, -0.9364673495292664, -1.0000044107437134], "name" : "NORMAL"}, {"bufferView" : 2, "byteOffset" : 24, "componentType" : 5126, "count" : 515, "type" : "VEC2", "max" : [0.9585750699043274, 0.966354489326477], "min" : [0.006885886192321777, 0.022762417793273926], "name" : "TEXCOORD_0"}, {"bufferView" : 0, "byteOffset" : 2472, "componentType" : 5123, "count" : 12282, "type" : "SCALAR", "max" : [9713], "min" : [0]}, {"bufferView" : 3, "byteOffset" : 0, "componentType" : 5126, "count" : 9714, "type" : "VEC3", "max" : [0.09579432010650635, 1.8330841064453125, 0.14622288942337036], "min" : [-0.09610731154680252, 1.5206059217453003, -0.0865776538848877], "name" : "POSITION"}, {"bufferView" : 3, "byteOffset" : 12, "componentType" : 5126, "count" : 9714, "type" : "VEC3", "max" : [0.9992212057113647, 0.9998701810836792, 0.9999849200248718], "min" : [-0.9992178082466125, -0.9999943971633911, -0.9999960660934448], "name" : "NORMAL"}, {"bufferView" : 3, "byteOffset" : 24, "componentType" : 5126, "count" : 9714, "type" : "VEC2", "max" : [0.9943000078201294, 0.9807000160217285], "min" : [0.004999999888241291, 0.004350006580352783], "name" : "TEXCOORD_0"}, {"bufferView" : 0, "byteOffset" : 27036, "componentType" : 5123, "count" : 300, "type" : "SCALAR", "max" : [238], "min" : [0]}, {"bufferView" : 4, "byteOffset" : 0, "componentType" : 5126, "count" : 239, "type" : "VEC3", "max" : [0.027997201308608055, 1.6781163215637207, 0.11883462220430374], "min" : [-0.027997201308608055, 1.6418249607086182, 0.05173180624842644], "name" : "POSITION"}, {"bufferView" : 4, "byteOffset" : 12, "componentType" : 5126, "count" : 239, "type" : "VEC3", "max" : [0.9971848130226135, 0.8770292401313782, 0.9974733591079712], "min" : [-0.9971846342086792, -0.9858387112617493, -0.7650244832038879], "name" : "NORMAL"}, {"bufferView" : 4, "byteOffset" : 24, "componentType" : 5126, "count" : 239, "type" : "VEC2", "max" : [0.9808249473571777, 0.983213484287262], "min" : [0.051069796085357666, 0.02829587459564209], "name" : "TEXCOORD_0"}, {"bufferView" : 0, "byteOffset" : 27636, "componentType" : 5123, "count" : 4230, "type" : "SCALAR", "max" : [3392], "min" : [0]}, {"bufferView" : 5, "byteOffset" : 0, "componentType" : 5126, "count" : 3393, "type" : "VEC3", "max" : [0.5314633250236511, 1.0861541032791138, 0.1485920399427414], "min" : [-0.5314706563949585, 0.8878016471862793, -0.00014507975720334798], "name" : "POSITION"}, {"bufferView" : 5, "byteOffset" : 12, "componentType" : 5126, "count" : 3393, "type" : "VEC3", "max" : [0.9983758926391602, 0.8493655920028687, 0.9933783411979675], "min" : [-0.9984799027442932, -0.9900056719779968, -0.9768104553222656], "name" : "NORMAL"}, {"bufferView" : 5, "byteOffset" : 24, "componentType" : 5126, "count" : 3393, "type" : "VEC2", "max" : [0.9857610464096069, 0.6144216656684875], "min" : [0.37126514315605164, 0.08261322975158691], "name" : "TEXCOORD_0"}, {"bufferView" : 0, "byteOffset" : 36096, "componentType" : 5123, "count" : 3186, "type" : "SCALAR", "max" : [2609], "min" : [0]}, {"bufferView" : 6, "byteOffset" : 0, "componentType" : 5126, "count" : 2610, "type" : "VEC3", "max" : [0.2226209193468094, 1.0486634969711304, 0.14709320664405823], "min" : [-0.2226209193468094, 0.07677861303091049, -0.14543117582798004], "name" : "POSITION"}, {"bufferView" : 6, "byteOffset" : 12, "componentType" : 5126, "count" : 2610, "type" : "VEC3", "max" : [0.9990678429603577, 0.5716562867164612, 0.9980019927024841], "min" : [-0.9990822672843933, -0.9987228512763977, -0.9995765089988708], "name" : "NORMAL"}, {"bufferView" : 6, "byteOffset" : 24, "componentType" : 5126, "count" : 2610, "type" : "VEC2", "max" : [0.981376588344574, 0.9759529232978821], "min" : [0.027726292610168457, 0.02337127923965454], "name" : "TEXCOORD_0"}, {"bufferView" : 0, "byteOffset" : 42468, "componentType" : 5123, "count" : 3864, "type" : "SCALAR", "max" : [3065], "min" : [0]}, {"bufferView" : 7, "byteOffset" : 0, "componentType" : 5126, "count" : 3066, "type" : "VEC3", "max" : [0.23255236446857452, 0.21140487492084503, 0.22893664240837097], "min" : [-0.23254439234733582, -0.0008667731308378279, -0.13066308200359344], "name" : "POSITION"}, {"bufferView" : 7, "byteOffset" : 12, "componentType" : 5126, "count" : 3066, "type" : "VEC3", "max" : [0.9998719096183777, 0.9985367059707642, 0.988834798336029], "min" : [-0.9998718500137329, -0.9993569850921631, -0.979004442691803], "name" : "NORMAL"}, {"bufferView" : 7, "byteOffset" : 24, "componentType" : 5126, "count" : 3066, "type" : "VEC2", "max" : [0.9791603684425354, 0.9840542674064636], "min" : [0.010693462565541267, 0.020824730396270752], "name" : "TEXCOORD_0"}, {"bufferView" : 0, "byteOffset" : 50196, "componentType" : 5123, "count" : 10524, "type" : "SCALAR", "max" : [8514], "min" : [0]}, {"bufferView" : 8, "byteOffset" : 0, "componentType" : 5126, "count" : 8515, "type" : "VEC3", "max" : [0.4676135778427124, 1.6295026540756226, 0.19392812252044678], "min" : [-0.4676135778427124, 1.0184078216552734, -0.15728764235973358], "name" : "POSITION"}, {"bufferView" : 8, "byteOffset" : 12, "componentType" : 5126, "count" : 8515, "type" : "VEC3", "max" : [0.9995924830436707, 0.9844180941581726, 1.0000028610229492], "min" : [-0.9998469352722168, -0.994229257106781, -0.9991576671600342], "name" : "NORMAL"}, {"bufferView" : 8, "byteOffset" : 24, "componentType" : 5126, "count" : 8515, "type" : "VEC2", "max" : [0.9843761920928955, 0.9911075830459595], "min" : [0.007254177238792181, 0.015061378479003906], "name" : "TEXCOORD_0"}, {"bufferView" : 0, "byteOffset" : 71244, "componentType" : 5123, "count" : 2964, "type" : "SCALAR", "max" : [2424], "min" : [0]}, {"bufferView" : 9, "byteOffset" : 0, "componentType" : 5126, "count" : 2425, "type" : "VEC3", "max" : [0.08215083926916122, 1.734890103340149, 0.12690681219100952], "min" : [-0.08215083926916122, 1.6978790760040283, -0.00420769676566124], "name" : "POSITION"}, {"bufferView" : 9, "byteOffset" : 12, "componentType" : 5126, "count" : 2425, "type" : "VEC3", "max" : [0.9967353343963623, 0.9990385174751282, 0.9991433620452881], "min" : [-0.9967353343963623, -0.9997580051422119, -0.9998177289962769], "name" : "NORMAL"}, {"bufferView" : 9, "byteOffset" : 24, "componentType" : 5126, "count" : 2425, "type" : "VEC2", "max" : [0.999171257019043, 0.9999635815620422], "min" : [-0.0009008646011352539, 3.635883331298828E-05], "name" : "TEXCOORD_0"}], "asset" : {"generator" : "Aspose.3D 23.2", "version" : "2.0"}, "buffers" : [{"uri" : "data:application/octet-stream;base64,", "byteLength" : 1311964}], "bufferViews" : [{"buffer" : 0, "byteOffset" : 0, "byteLength" : 77172, "target" : 34963}, {"buffer" : 0, "byteOffset" : 77176, "byteLength" : 19776, "byteStride" : 32, "target" : 34962}, {"buffer" : 0, "byteOffset" : 96956, "byteLength" : 19776, "byteStride" : 32, "target" : 34962}, {"buffer" : 0, "byteOffset" : 116736, "byteLength" : 393024, "byteStride" : 32, "target" : 34962}, {"buffer" : 0, "byteOffset" : 509764, "byteLength" : 9600, "byteStride" : 32, "target" : 34962}, {"buffer" : 0, "byteOffset" : 519368, "byteLength" : 135360, "byteStride" : 32, "target" : 34962}, {"buffer" : 0, "byteOffset" : 654732, "byteLength" : 101952, "byteStride" : 32, "target" : 34962}, {"buffer" : 0, "byteOffset" : 756688, "byteLength" : 123648, "byteStride" : 32, "target" : 34962}, {"buffer" : 0, "byteOffset" : 880340, "byteLength" : 336768, "byteStride" : 32, "target" : 34962}, {"buffer" : 0, "byteOffset" : 1217112, "byteLength" : 94848, "byteStride" : 32, "target" : 34962}], "images" : [{"uri" : "data:image/jpeg;base64,"}, {"uri" : "data:image/jpeg;base64,"}, {"uri" : "data:image/jpeg;base64,"}, {"uri" : "data:image/jpeg;base64,"}, {"uri" : "data:image/png;base64,"}, {"uri" : "data:image/jpeg;base64,"}, {"uri" : "data:image/jpeg;base64,"}, {"uri" : "data:image/jpeg;base64,"}, {"uri" : "data:image/jpeg;base64,"}, {"uri" : "data:image/jpeg;base64,"}, {"uri" : "data:image/jpeg;base64,"}, {"uri" : "data:image/jpeg;base64,"}, {"uri" : "data:image/jpeg;base64,"}, {"uri" : "data:image/jpeg;base64,"}, {"uri" : "data:image/png;base64,"}], "materials" : [{"name" : "Wolf3D_Eye", "pbrMetallicRoughness" : {"baseColorFactor" : [1, 1, 1, 1], "baseColorTexture" : {"index" : 0, "texCoord" : 0}, "metallicFactor" : 0, "roughnessFactor" : 1}, "emissiveFactor" : [0, 0, 0], "alphaMode" : "OPAQUE", "doubleSided" : true}, {"name" : "Wolf3D_Eye", "pbrMetallicRoughness" : {"baseColorFactor" : [1, 1, 1, 1], "baseColorTexture" : {"index" : 0, "texCoord" : 0}, "metallicFactor" : 0, "roughnessFactor" : 1}, "emissiveFactor" : [0, 0, 0], "alphaMode" : "OPAQUE", "doubleSided" : true}, {"name" : "Wolf3D_Skin", "pbrMetallicRoughness" : {"baseColorFactor" : [1, 1, 1, 1], "baseColorTexture" : {"index" : 1, "texCoord" : 0}, "metallicFactor" : 0, "roughnessFactor" : 0.699999988079071}, "emissiveFactor" : [0, 0, 0], "alphaMode" : "OPAQUE", "doubleSided" : true}, {"name" : "Wolf3D_Teeth", "pbrMetallicRoughness" : {"baseColorFactor" : [1, 1, 1, 1], "baseColorTexture" : {"index" : 2, "texCoord" : 0}, "metallicFactor" : 0, "roughnessFactor" : 1}, "emissiveFactor" : [0, 0, 0], "alphaMode" : "OPAQUE", "doubleSided" : true}, {"name" : "Wolf3D_Body", "pbrMetallicRoughness" : {"baseColorFactor" : [1, 1, 1, 1], "baseColorTexture" : {"index" : 4, "texCoord" : 0}, "metallicFactor" : 0, "roughnessFactor" : 0.6618773341178894}, "normalTexture" : {"index" : 3, "texCoord" : 0, "scale" : 1}, "emissiveFactor" : [0, 0, 0], "alphaMode" : "OPAQUE", "doubleSided" : false}, {"name" : "Wolf3D_Outfit_Bottom", "pbrMetallicRoughness" : {"baseColorFactor" : [1, 1, 1, 1], "baseColorTexture" : {"index" : 6, "texCoord" : 0}, "metallicFactor" : 0, "roughnessFactor" : 1, "metallicRoughnessTexture" : {"index" : 7, "texCoord" : 0}}, "normalTexture" : {"index" : 5, "texCoord" : 0, "scale" : 1}, "emissiveFactor" : [0, 0, 0], "alphaMode" : "OPAQUE", "doubleSided" : false}, {"name" : "Wolf3D_Outfit_Footwear", "pbrMetallicRoughness" : {"baseColorFactor" : [1, 1, 1, 1], "baseColorTexture" : {"index" : 9, "texCoord" : 0}, "metallicFactor" : 1, "roughnessFactor" : 1, "metallicRoughnessTexture" : {"index" : 10, "texCoord" : 0}}, "normalTexture" : {"index" : 8, "texCoord" : 0, "scale" : 1}, "emissiveFactor" : [0, 0, 0], "alphaMode" : "OPAQUE", "doubleSided" : false}, {"name" : "Wolf3D_Outfit_Top", "pbrMetallicRoughness" : {"baseColorFactor" : [1, 1, 1, 1], "baseColorTexture" : {"index" : 12, "texCoord" : 0}, "metallicFactor" : 1, "roughnessFactor" : 1, "metallicRoughnessTexture" : {"index" : 13, "texCoord" : 0}}, "normalTexture" : {"index" : 11, "texCoord" : 0, "scale" : 1}, "emissiveFactor" : [0, 0, 0], "alphaMode" : "OPAQUE", "doubleSided" : false}, {"name" : "Wolf3D_Glasses", "pbrMetallicRoughness" : {"baseColorFactor" : [1, 1, 1, 1], "baseColorTexture" : {"index" : 14, "texCoord" : 0}, "metallicFactor" : 0, "roughnessFactor" : 0.15000000596046448}, "emissiveFactor" : [0, 0, 0], "alphaMode" : "OPAQUE", "doubleSided" : false}], "meshes" : [{"primitives" : [{"attributes" : {"POSITION" : 1, "NORMAL" : 2, "TEXCOORD_0" : 3}, "indices" : 0, "material" : 0, "mode" : 4}]}, {"primitives" : [{"attributes" : {"POSITION" : 5, "NORMAL" : 6, "TEXCOORD_0" : 7}, "indices" : 4, "material" : 1, "mode" : 4}]}, {"primitives" : [{"attributes" : {"POSITION" : 9, "NORMAL" : 10, "TEXCOORD_0" : 11}, "indices" : 8, "material" : 2, "mode" : 4}]}, {"primitives" : [{"attributes" : {"POSITION" : 13, "NORMAL" : 14, "TEXCOORD_0" : 15}, "indices" : 12, "material" : 3, "mode" : 4}]}, {"primitives" : [{"attributes" : {"POSITION" : 17, "NORMAL" : 18, "TEXCOORD_0" : 19}, "indices" : 16, "material" : 4, "mode" : 4}]}, {"primitives" : [{"attributes" : {"POSITION" : 21, "NORMAL" : 22, "TEXCOORD_0" : 23}, "indices" : 20, "material" : 5, "mode" : 4}]}, {"primitives" : [{"attributes" : {"POSITION" : 25, "NORMAL" : 26, "TEXCOORD_0" : 27}, "indices" : 24, "material" : 6, "mode" : 4}]}, {"primitives" : [{"attributes" : {"POSITION" : 29, "NORMAL" : 30, "TEXCOORD_0" : 31}, "indices" : 28, "material" : 7, "mode" : 4}]}, {"primitives" : [{"attributes" : {"POSITION" : 33, "NORMAL" : 34, "TEXCOORD_0" : 35}, "indices" : 32, "material" : 8, "mode" : 4}]}], "nodes" : [{"mesh" : 0, "name" : "EyeLeft"}, {"mesh" : 1, "name" : "EyeRight"}, {"mesh" : 2, "name" : "Wolf3D_Head"}, {"mesh" : 3, "name" : "Wolf3D_Teeth"}, {"mesh" : 4, "name" : "Wolf3D_Body"}, {"mesh" : 5, "name" : "Wolf3D_Outfit_Bottom"}, {"mesh" : 6, "name" : "Wolf3D_Outfit_Footwear"}, {"mesh" : 7, "name" : "Wolf3D_Outfit_Top"}, {"mesh" : 8, "name" : "Wolf3D_Glasses"}, {"children" : [0, 1, 2, 3, 4, 5, 6, 7, 8], "name" : "Armature"}], "samplers" : [{"magFilter" : 9728, "minFilter" : 9728, "wrapS" : 10497, "wrapT" : 10497}, {"magFilter" : 9728, "minFilter" : 9728, "wrapS" : 10497, "wrapT" : 10497}, {"magFilter" : 9729, "minFilter" : 9987, "wrapS" : 10497, "wrapT" : 10497}, {"magFilter" : 9729, "minFilter" : 9987, "wrapS" : 10497, "wrapT" : 10497}, {"magFilter" : 9728, "minFilter" : 9728, "wrapS" : 10497, "wrapT" : 10497}, {"magFilter" : 9729, "minFilter" : 9987, "wrapS" : 10497, "wrapT" : 10497}, {"magFilter" : 9729, "minFilter" : 9987, "wrapS" : 10497, "wrapT" : 10497}, {"magFilter" : 9729, "minFilter" : 9987, "wrapS" : 10497, "wrapT" : 10497}, {"magFilter" : 9729, "minFilter" : 9987, "wrapS" : 10497, "wrapT" : 10497}, {"magFilter" : 9729, "minFilter" : 9987, "wrapS" : 10497, "wrapT" : 10497}, {"magFilter" : 9729, "minFilter" : 9987, "wrapS" : 10497, "wrapT" : 10497}, {"magFilter" : 9729, "minFilter" : 9987, "wrapS" : 10497, "wrapT" : 10497}, {"magFilter" : 9729, "minFilter" : 9987, "wrapS" : 10497, "wrapT" : 10497}, {"magFilter" : 9729, "minFilter" : 9987, "wrapS" : 10497, "wrapT" : 10497}, {"magFilter" : 9728, "minFilter" : 9728, "wrapS" : 10497, "wrapT" : 10497}], "scene" : 0, "scenes" : [{"nodes" : [9]}], "textures" : [{"sampler" : 0, "source" : 0, "name" : ""}, {"sampler" : 1, "source" : 1, "name" : ""}, {"sampler" : 2, "source" : 2, "name" : ""}, {"sampler" : 3, "source" : 3, "name" : ""}, {"sampler" : 4, "source" : 4, "name" : ""}, {"sampler" : 5, "source" : 5, "name" : ""}, {"sampler" : 6, "source" : 6, "name" : ""}, {"sampler" : 7, "source" : 7, "name" : ""}, {"sampler" : 8, "source" : 8, "name" : ""}, {"sampler" : 9, "source" : 9, "name" : ""}, {"sampler" : 10, "source" : 10, "name" : ""}, {"sampler" : 11, "source" : 11, "name" : ""}, {"sampler" : 12, "source" : 12, "name" : ""}, {"sampler" : 13, "source" : 13, "name" : ""}, {"sampler" : 14, "source" : 14, "name" : ""}]}